<?xml version="1.0" encoding="UTF-8" standalone="no"?>
<!-- Created with Inkscape (http://www.inkscape.org/) -->

<svg
   xmlns:dc="http://purl.org/dc/elements/1.1/"
   xmlns:cc="http://creativecommons.org/ns#"
   xmlns:rdf="http://www.w3.org/1999/02/22-rdf-syntax-ns#"
   xmlns:svg="http://www.w3.org/2000/svg"
   xmlns="http://www.w3.org/2000/svg"
   xmlns:sodipodi="http://sodipodi.sourceforge.net/DTD/sodipodi-0.dtd"
   xmlns:inkscape="http://www.inkscape.org/namespaces/inkscape"
   id="svg3336"
   version="1.1"
   inkscape:version="0.91 r13725"
   width="2071"
   height="1915"
   viewBox="0 0 2071 1915"
   sodipodi:docname="team-instinct-cutout.svg">
  <metadata
     id="metadata3342">
    <rdf:RDF>
      <cc:Work
         rdf:about="">
        <dc:format>image/svg+xml</dc:format>
        <dc:type
           rdf:resource="http://purl.org/dc/dcmitype/StillImage" />
        <dc:title></dc:title>
      </cc:Work>
    </rdf:RDF>
  </metadata>
  <defs
     id="defs3340">
    <filter
       style="color-interpolation-filters:sRGB;"
       inkscape:label="Greyscale"
       id="filter3378">
      <feColorMatrix
         values="-10 -10 -10 0.208333 0 -10 -10 -10 0.208333 0 -10 -10 -10 0.208333 0 0 0 0 1 0 "
         id="feColorMatrix3380" />
    </filter>
  </defs>
  <sodipodi:namedview
     pagecolor="#ffffff"
     bordercolor="#666666"
     borderopacity="1"
     objecttolerance="10"
     gridtolerance="10"
     guidetolerance="10"
     inkscape:pageopacity="0"
     inkscape:pageshadow="2"
     inkscape:window-width="1600"
     inkscape:window-height="837"
     id="namedview3338"
     showgrid="false"
     inkscape:zoom="0.34882507"
     inkscape:cx="407.90653"
     inkscape:cy="1007.5879"
     inkscape:window-x="1592"
     inkscape:window-y="-8"
     inkscape:window-maximized="1"
     inkscape:current-layer="layer1" />
  <g
     inkscape:groupmode="layer"
     id="layer1"
     inkscape:label="Layer 1"
     style="display:inline">
    <g
       id="g3400">
      <path
         style="fill:#faf3cf"
         d="m 1019.686,1911.7617 c -1.6741,-2.2438 -551.30667,-942.64041 -613.44558,-1049.57789 -1.55262,-2.67196 -2.15249,-4.67174 -1.5747,-5.24953 0.57779,-0.57779 12.32482,1.35214 30.83661,5.06619 16.44679,3.29974 30.90882,5.99953 32.13784,5.99953 1.9926,0 -4.36539,-13.2385 -58.71239,-122.25 -33.52083,-67.2375 -60.83014,-123.10264 -60.68737,-124.14475 0.32785,-2.39296 10.26265,-6.43479 12.36588,-5.03089 0.76269,0.5091 17.1895,28.37564 36.504,61.92564 37.1098,64.46108 278.0859,481.9582 493.21074,854.5 70.66564,122.375 129.01847,222.5 129.67287,222.5 0.6545,0 149.6567,-254.467 331.116,-565.4822 181.4593,-311.01528 330.4804,-565.99935 331.1581,-566.63131 0.6776,-0.63196 4.7262,-1.44682 8.9969,-1.8108 6.2917,-0.53623 7.8702,-0.3872 8.3202,0.78556 0.3093,0.80587 -28.1153,56.02605 -64.1332,124.59134 -35.5788,67.72919 -64.4652,123.36745 -64.1921,123.64057 0.2731,0.27312 14.4496,-4.02361 31.5032,-9.54829 C 1619.8167,855.52019 1634.7696,851 1635.9918,851 c 1.5975,0 2.0548,0.43628 1.6266,1.55198 -1.0714,2.79198 -612.9436,1059.91372 -614.2383,1061.20972 -1.0144,1.0153 -1.7357,0.6248 -3.6941,-2 z m 5.9349,-548.0117 c -1.3751,-4.5375 -20.1186,-67.65 -41.65228,-140.25 -21.53366,-72.6 -39.44832,-132.2761 -39.81036,-132.6136 -0.36204,-0.3374 -35.71537,19.1465 -78.56295,43.2977 -42.84757,24.1511 -78.5411,43.6669 -79.31895,43.3685 -0.86411,-0.3316 -1.18113,-1.2773 -0.81495,-2.431 0.32963,-1.0386 15.41152,-33.5533 33.51532,-72.255 18.1038,-38.7016 32.55407,-70.4953 32.11171,-70.6526 -0.44236,-0.1573 -33.99858,4.9399 -74.56939,11.327 -73.66854,11.5977 -78.77084,12.1496 -74.47619,8.0557 1.46006,-1.3919 239.74493,-155.34239 243.78956,-157.50701 2.65821,-1.42264 -0.40472,-2.9827 44.28509,22.55607 C 1009.7071,927.84059 1026.3982,937 1027.2087,937 c 0.8106,0 17.6327,-8.82192 37.3825,-19.60427 19.7498,-10.78235 38.0871,-20.71062 40.7495,-22.06283 l 4.8408,-2.45855 6.1592,3.65815 c 3.3876,2.01199 60.0685,36.52411 125.9574,76.6936 88.5421,53.9801 119.7131,73.4579 119.4722,74.6547 -0.4115,2.0439 5.3594,2.4397 -78.7703,-5.4024 -65.5908,-6.114 -76,-6.9549 -76,-6.1398 0,0.1863 12.825,31.5497 28.5,69.6964 15.675,38.1468 28.5,70.2219 28.5,71.278 0,1.4634 -0.5352,1.8087 -2.25,1.4516 -1.2375,-0.2577 -35.775,-21.216 -76.75,-46.5741 -62.3035,-38.5576 -74.618,-45.826 -75.2207,-44.398 -0.3964,0.9391 -17.8787,64.2333 -38.8494,140.6538 -20.9708,76.4205 -38.5228,139.983 -39.0045,141.25 -1.71,4.4976 -3.7116,2.6097 -6.3045,-5.9463 z M 850.45833,805.6628 C 754.18541,751.67326 673.74791,706.50268 671.70833,705.28373 669.66875,704.06477 668,702.45314 668,701.70231 c 0,-0.75082 15.58365,-10.7675 34.63033,-22.25928 33.84399,-20.41971 34.56493,-20.92076 31.75,-22.06612 -1.58418,-0.64458 -81.82058,-30.26886 -178.30312,-65.83173 -96.48253,-35.56287 -176.24503,-65.09981 -177.25,-65.63765 C 377.82225,525.36969 377,524.33212 377,523.60182 c 0,-1.84435 4.03042,-2.04809 112,-5.66151 51.425,-1.72104 94.37194,-3.45717 95.43765,-3.85808 1.56074,-0.58713 -4.76118,-5.59144 -32.5,-25.7264 C 489.65891,443.14915 335.47578,333.96964 139.25,196.1252 c -28.87507,-20.28412 -34.31438,-25.01246 -27.5,-23.90546 1.5125,0.24571 127.73642,40.87286 280.4976,90.28257 152.76118,49.4097 277.99411,89.58932 278.29539,89.28804 0.30128,-0.30129 -0.82264,-5.97604 -2.4976,-12.61058 C 664.46937,325.01515 664.46805,325 666.80951,325 c 2.81368,0 197.64573,125.76189 197.95417,127.77718 0.16588,1.08378 -23.07845,27.50212 -62.66581,71.22282 -34.61122,38.225 -62.50227,69.65504 -61.98011,69.84452 0.52216,0.18949 39.65054,-7.42817 86.95196,-16.92814 74.31036,-14.92441 86.19006,-17.0785 87.3816,-15.84452 0.75846,0.78548 5.50762,16.50314 10.55368,34.92814 5.04605,18.425 9.47173,33.81445 9.83482,34.19878 0.3631,0.38434 10.24249,-15.08335 21.95421,-34.37263 11.71171,-19.28929 21.04723,-35.31823 20.74558,-35.61987 -0.30164,-0.30164 -8.8848,2.76162 -19.0737,6.80725 -16.02134,6.36149 -18.71231,7.16179 -19.90918,5.92108 -0.76116,-0.78903 -3.92137,-8.85961 -7.02268,-17.93461 -3.10131,-9.075 -5.98318,-16.84549 -6.40415,-17.26775 -0.42096,-0.42226 -25.81281,3.06524 -56.42632,7.75 C 838.09007,550.16701 812.58306,554 812.02133,554 c -3.88223,0 3.26454,-8.28228 45.72867,-52.99427 25.7125,-27.07361 46.88035,-49.56652 47.03967,-49.98425 0.15932,-0.41773 -36.96568,-29.20906 -82.5,-63.98074 C 746.75836,329.36225 735.25762,320 739.93581,320 c 0.5912,0 31.91254,7.70996 69.60297,17.13324 37.69044,9.42329 68.77392,16.88739 69.07441,16.5869 0.30049,-0.30049 -2.18955,-10.68952 -5.53342,-23.08672 -6.19258,-22.95863 -6.78668,-26.07849 -5.15765,-27.08529 0.50717,-0.31345 15.24467,5.71944 32.75,13.40642 17.50534,7.68698 31.94297,13.64661 32.08364,13.24362 0.14066,-0.40299 -17.52184,-59.37673 -39.25,-131.05275 C 871.77759,127.46941 854,68.156681 854,67.339371 c 0,-0.86608 0.71628,-1.348077 1.71695,-1.155366 0.94432,0.18186 38.07454,50.277355 82.5116,111.323325 44.43707,61.04597 81.12695,111.08671 81.53305,111.20165 0.4061,0.11494 2.0551,-1.68506 3.6643,-4 1.6092,-2.31494 25.493,-36.15898 53.075,-75.20898 56.0459,-79.34863 88.4145,-125.58233 105.8912,-151.25 11.3032,-16.600665 15.6097,-20.966908 14.3017,-14.5 -0.3059,1.5125 -20.6573,65.4424 -45.2252,142.06644 -24.568,76.62405 -44.4031,139.58241 -44.078,139.90748 0.3251,0.32507 13.9827,-4.59423 30.3502,-10.93177 16.3676,-6.33755 30.3217,-11.31027 31.0092,-11.0505 1.985,0.75004 1.5476,3.36852 -4.7162,28.23502 -3.2526,12.91217 -5.7047,23.68578 -5.4491,23.94137 0.2556,0.25558 30.2661,-6.83475 66.69,-15.75631 36.4239,-8.92155 67.0128,-16.20766 67.9753,-16.19136 0.9625,0.0163 1.75,0.64978 1.75,1.40773 0,0.75796 -35.9806,28.32046 -79.957,61.25 -43.9763,32.92955 -79.9763,60.25027 -80,60.71273 -0.024,0.46246 19.6795,20.93746 43.7848,45.5 51.1486,52.11888 57.4521,58.81317 56.9163,60.44544 -0.9805,2.98742 -7.8821,1.94187 -82.0401,-12.42847 -22.9877,-4.45457 -42.0712,-7.82397 -42.4076,-7.48754 -0.3364,0.33643 -2.3194,10.85325 -4.4065,23.37072 -2.0872,12.51746 -4.0616,24.22152 -4.3877,26.00902 -0.3948,2.16416 -1.1625,3.25 -2.2979,3.25 -0.9378,0 -9.0373,-5.45513 -17.9989,-12.12252 -8.9615,-6.66738 -16.4738,-11.94238 -16.694,-11.72223 -0.487,0.48704 43.7475,71.7467 44.5726,71.80411 0.4513,0.0314 12.7756,-44.41407 19.1726,-69.14254 0.524,-2.02575 1.5997,-3.93144 2.3904,-4.23486 1.1177,-0.42891 172.7692,37.61572 180.7213,40.05486 1.0276,0.31518 1.7026,0.1364 1.5,-0.3973 -0.2026,-0.53369 -32.8808,-34.58116 -72.6183,-75.66105 -39.7375,-41.07988 -72.2431,-75.00294 -72.2347,-75.38458 0.01,-0.38164 0.3459,-1.16936 0.75,-1.75048 0.7096,-1.02044 201.4118,-129.97017 205.9995,-132.35322 3.7546,-1.95026 3.8193,0.96474 0.3935,17.72053 -1.744,8.53044 -3.0268,15.65415 -2.8504,15.83047 0.1763,0.17632 119.288,-38.37081 264.6927,-85.6603 C 1783.4053,215.6914 1902.9639,177 1903.6864,177 c 3.193,0 0.7319,3.34911 -6.4364,8.75891 -4.2625,3.21683 -107.5375,78.90678 -229.5,168.19988 -121.9625,89.2931 -221.75,162.65809 -221.75,163.03332 0,0.37522 19.2375,0.97197 42.75,1.32609 74.8641,1.12755 152.5427,2.73933 159,3.29914 7.5881,0.65785 8.2959,2.5637 2,5.38479 -2.3375,1.04739 -75.4576,31.96289 -162.4892,68.70111 C 1400.2293,632.44146 1329.029,662.725 1329.038,663 c 0.01,0.275 10.6602,7.25 23.6693,15.5 29.8135,18.9069 31.5748,20.17357 30.5633,21.98102 -1.0575,1.88964 -354.1178,203.54389 -356.1724,203.43178 -0.879,-0.048 -80.36695,-44.26046 -176.63987,-98.25 z M 1039.0125,647.40059 c 7.1391,-80.24532 12.9819,-147.34466 12.9839,-149.10963 0,-2.53718 -2.8752,-7.19112 -13.7464,-22.22875 -7.5625,-10.46084 -14.0014,-19.02927 -14.3086,-19.04096 -0.3072,-0.0117 -7.2323,9.00745 -15.3892,20.04253 l -14.83053,20.06377 15.21053,144.18623 c 16.0907,152.53088 16.1368,152.95054 16.7235,152.36385 0.2071,-0.20705 6.2176,-66.03171 13.3568,-146.27704 z M 1323.0963,249.25 c -2.226,-8.51108 -7.1674,-35.84618 -6.8926,-38.12925 0.2884,-2.39572 10.223,-5.21533 372.2963,-105.6637 204.6,-56.761263 374.198,-103.7240809 376.8845,-104.3618156 5.1488,-1.22225619 6.7649,-0.84460606 4.7988,1.1214323 C 2069.5325,2.8675 2069,3.9309439 2069,4.5798753 c 0,1.4783439 -56.8104,110.4082247 -58.5796,112.3222347 -0.8659,0.93672 -6.0466,1.83839 -15.6082,2.71653 -19.5907,1.79919 -24.8122,1.77526 -24.8122,-0.11373 0,-0.82229 5.9474,-13.39992 13.2164,-27.950276 7.269,-14.550356 12.952,-26.719567 12.6289,-27.04269 -0.3231,-0.323124 -150.9839,41.954506 -334.8016,93.950276 C 1477.2259,210.458 1326.2103,253 1325.4533,253 c -0.7569,0 -1.8176,-1.6875 -2.357,-3.75 z M 364.5,146.95455 C 194,100.79085 53.664355,63.015924 52.643011,63.010274 c -1.066918,-0.0059 -1.661237,0.521548 -1.396893,1.239726 0.253052,0.6875 6.640352,17.613345 14.193999,37.61299 9.663581,25.58607 13.420137,36.67676 12.675206,37.42169 -1.275641,1.27564 -32.923187,-3.85374 -34.827204,-5.64474 C 42.031563,132.45798 3.6143444,20.629721 1.9880658,13.420074 1.4818964,11.176115 0.77936734,8.5886154 0.4268901,7.6700745 -0.01854964,6.5092771 0.31001876,6 1.5043658,6 4.6247001,6 687.47581,205.15185 688.16192,206.26198 c 0.66369,1.07389 -0.59733,4.75665 -6.0374,17.63196 -2.27273,5.37901 -3.24007,6.64215 -5.20785,6.80033 C 675.5875,230.80113 535,193.11825 364.5,146.95455 Z"
         id="path3414"
         inkscape:connector-curvature="0" />
      <path
         style="fill:#f3e7a1"
         d="M 714.15344,1386.2041 C 545.21905,1096.981 407,859.78619 407,859.10455 c 0,-0.71193 0.74471,-1.01783 1.75,-0.71882 C 412.81548,859.59493 467.26196,870 469.52385,870 470.88573,870 472,869.54927 472,868.99837 472,868.44748 444.55,813.09821 411,746 377.45,678.90179 350,623.33356 350,622.51505 c 0,-1.52481 5.95204,-4.53606 8.87212,-4.48858 1.09288,0.0178 13.5785,20.80469 37.99097,63.25 38.95729,67.734 219.04358,379.76303 467.90584,810.72353 84.94868,147.1076 154.49787,266.5 155.24327,266.5 0.7432,0 150.0597,-254.9177 332.1168,-567 l 330.7666,-567 3.8022,-0.69237 c 2.0912,-0.3808 5.5378,-0.7183 7.6592,-0.75 3.2731,-0.0489 3.7556,0.2073 3.1872,1.69237 -0.3684,0.9625 -29.4416,56.5192 -64.607,123.45934 -35.1655,66.94014 -63.9372,122.40264 -63.9372,123.25 0,0.84736 0.4965,1.54066 1.1033,1.54066 0.6068,0 15.2343,-4.57256 32.5054,-10.16124 17.2712,-5.58868 31.6809,-9.88247 32.0217,-9.54174 0.7563,0.75637 -610.7936,1057.92408 -612.2728,1058.41708 -0.5779,0.1927 -139.26977,-236.2868 -308.20416,-525.51 z m 314.57136,-15.8581 c -0.2815,-0.4653 -19.0616,-63.396 -41.73346,-139.846 -22.67187,-76.45 -41.73228,-139.5032 -42.35646,-140.1183 -0.84013,-0.8278 -21.0664,10.1168 -77.87603,42.1396 -42.20764,23.7919 -77.42014,43.5185 -78.25,43.8369 -1.00246,0.3847 -1.50885,-0.028 -1.50885,-1.23 0,-0.9949 14.8813,-33.6495 33.06955,-72.5657 18.18825,-38.9162 32.83323,-70.9931 32.54439,-71.2819 -0.28884,-0.2888 -33.89389,4.7311 -74.67789,11.1554 -40.784,6.4244 -74.41648,11.4169 -74.73884,11.0945 -0.32235,-0.3223 0.2889,-1.4128 1.35835,-2.4232 1.52921,-1.4448 219.59233,-142.54461 238.58573,-154.37916 5.58662,-3.48096 -0.32343,-6.11259 46.97622,20.91762 C 1009.7071,928.84059 1026.3954,938 1027.2026,938 c 0.8071,0 19.6542,-9.92093 41.8825,-22.04651 33.4038,-18.22195 40.7735,-21.88312 42.4823,-21.10465 2.5401,1.15724 242.8008,147.59696 246.7944,150.42206 2.1376,1.5122 2.5172,2.2079 1.5,2.7492 -0.749,0.3986 -35.4292,-2.463 -77.0671,-6.3591 -41.6379,-3.896 -76.0072,-6.7818 -76.3762,-6.4128 -0.369,0.369 12.0583,31.6266 27.6163,69.4613 15.558,37.8348 28.5055,69.8727 28.7724,71.1954 0.3998,1.9817 0.1515,2.3119 -1.411,1.8767 -1.0429,-0.2904 -35.4172,-21.2666 -76.3874,-46.6136 -40.9702,-25.3471 -74.8108,-45.766 -75.2014,-45.3754 -0.3907,0.3907 -18.1243,64.1596 -39.4082,141.7088 -21.2839,77.5492 -39.2525,141.6043 -39.9303,142.3446 -0.6777,0.7402 -1.4626,0.9652 -1.7441,0.5 z M 847.5,803.03203 c -100.92508,-56.58344 -178,-100.3861 -178,-101.15967 0,-0.75038 15.2536,-10.59114 33.89688,-21.86835 18.64329,-11.2772 33.94329,-20.95401 34,-21.50401 0.0567,-0.55 -79.92754,-30.50453 -177.7428,-66.56562 -97.81526,-36.06109 -178.59026,-66.04581 -179.5,-66.63272 -0.90974,-0.5869 -1.31338,-1.42307 -0.89696,-1.85816 0.41641,-0.43509 47.35705,-2.466 104.31253,-4.51315 56.95548,-2.04714 103.82727,-3.99394 104.15955,-4.32621 0.74671,-0.74672 2.53718,0.70748 -15.91636,-12.92716 C 533.90473,473.66805 374.57644,360.54909 211,245.50922 c -32.725,-23.01481 -68.37007,-48.0843 -79.21127,-55.70999 -19.23071,-13.52686 -21.53916,-15.38213 -20.46989,-16.45141 0.28551,-0.28551 125.31808,39.82629 277.85014,89.13734 152.53206,49.31105 278.56852,89.90584 280.08102,90.21065 3.47379,0.70005 3.47186,0.59782 -0.25638,-13.58017 C 665.57025,326.09701 665.55761,326 667.28444,326 c 2.20388,0 196.18089,125.41573 196.42736,127 0.12835,0.825 -28.29429,32.98711 -63.16143,71.47135 -34.86714,38.48425 -63.21772,70.25787 -63.0013,70.60804 0.21642,0.35018 39.44391,-7.18073 87.17221,-16.73535 47.7283,-9.55462 87.45372,-17.2473 88.27872,-17.09483 1.06628,0.19706 4.29583,10.34607 11.16925,35.09992 5.31808,19.15248 9.93808,35.09153 10.26666,35.42012 0.32858,0.32858 0.99778,0.17742 1.48711,-0.33592 1.94966,-2.04531 44.28299,-72.56066 43.83197,-73.01167 -0.26595,-0.26595 -9.12477,2.94195 -19.68627,7.12868 -10.5615,4.18672 -19.78031,7.39057 -20.48625,7.11968 -0.70595,-0.2709 -3.89822,-8.16059 -7.09393,-17.53265 -3.19572,-9.37207 -6.10837,-17.52224 -6.47255,-18.1115 -0.45162,-0.73074 -18.38283,1.63843 -56.39641,7.45137 C 838.96574,549.16476 813.46113,553 812.94266,553 812.4242,553 812,552.42924 812,551.73164 c 0,-0.69759 21.14451,-23.53509 46.9878,-50.75 25.84329,-27.2149 46.85272,-49.93164 46.68762,-50.48164 -0.1651,-0.55 -33.12211,-26.10252 -73.2378,-56.78337 -40.11569,-30.68086 -77.37171,-59.18677 -82.79115,-63.34647 -5.76946,-4.42836 -9.48403,-7.9326 -8.96205,-8.45458 0.52199,-0.52199 29.33713,6.25273 69.5215,16.34517 37.7465,9.48017 68.96118,16.90549 69.36595,16.50071 0.40477,-0.40477 -2.03331,-11.01998 -5.41796,-23.58935 C 870.76926,318.60274 868,307.572 868,306.65935 868,305.74671 868.70856,305 869.57458,305 c 0.86601,0 15.45745,6.075 32.42542,13.5 16.96797,7.425 31.10941,13.5 31.42542,13.5 0.31602,0 0.57458,-0.52558 0.57458,-1.16796 0,-0.64239 -17.58393,-59.25489 -39.0754,-130.25 C 873.43313,129.58692 855.62781,70.7125 855.35721,69.75 c -0.29053,-1.033433 0.0474,-1.743938 0.8254,-1.735196 0.72457,0.0081 37.55446,49.812166 81.8442,110.675606 44.28975,60.86344 81.00039,110.81866 81.57919,111.0116 1.2801,0.42669 121.9847,-169.98212 160.969,-227.253449 6.8836,-10.112619 12.9453,-18.652083 13.4703,-18.976587 0.5251,-0.324505 0.9547,0.360186 0.9547,1.521535 0,1.161349 -20.0533,64.662261 -44.5629,141.113141 -24.5096,76.45088 -44.4221,139.62194 -44.25,140.38012 0.2292,1.00983 8.1979,-1.67919 29.7945,-10.05413 16.2149,-6.28795 30.2774,-11.43264 31.25,-11.43264 0.9726,0 1.7684,0.68885 1.7684,1.53077 0,0.84192 -2.7,12.30307 -6,25.46923 -3.3,13.16616 -6,24.17731 -6,24.46923 0,1.20581 6.0172,-0.15551 68.3763,-15.46923 35.8345,-8.8 65.7094,-16 66.3887,-16 0.6792,0 1.235,0.44898 1.235,0.99774 0,0.54875 -35.7944,27.84436 -79.5431,60.6569 -43.7487,32.81255 -79.4112,60.23109 -79.25,60.93011 0.1612,0.69902 18.5207,19.86591 40.7989,42.59309 56.2816,57.41584 60.2436,61.60961 59.4373,62.9143 -1.2209,1.97532 -17.8849,-0.78057 -89.1781,-14.7482 -18.8293,-3.689 -34.4886,-6.45369 -34.7985,-6.14376 -0.3099,0.30992 -2.4418,12.1442 -4.7374,26.2984 -2.6826,16.53962 -4.6265,25.90855 -5.4404,26.22087 -0.6965,0.26728 -8.9883,-5.22506 -18.4262,-12.20519 -9.4379,-6.98013 -17.8792,-12.96719 -18.7585,-13.30458 -1.4644,-0.56194 -1.4645,-0.40759 0,1.83844 0.8782,1.34853 11.4057,18.20188 23.3945,37.45188 11.9888,19.25 22.3704,35.6228 23.0703,36.384 1.521,1.65436 0.5329,4.78963 12.356,-39.20568 4.8512,-18.05193 9.2707,-33.27201 9.8211,-33.82241 0.6676,-0.66762 31.3754,5.86006 92.2555,19.61116 50.1901,11.33653 91.5111,20.3556 91.8243,20.04238 0.3132,-0.31322 -2.8486,-4.04349 -7.0262,-8.28947 C 1270.6178,554.41546 1170.0457,449.35071 1170.3021,448.53764 1170.7293,447.18303 1375.0324,316 1376.7149,316 c 1.8567,0 1.6398,2.20916 -1.817,18.50525 -1.7062,8.04311 -2.871,14.85503 -2.5884,15.1376 0.2826,0.28257 118.791,-37.94347 263.3521,-84.94676 144.5611,-47.00328 263.8923,-85.78197 265.1803,-86.17487 1.8166,-0.55409 2.2652,-0.36581 2,0.83926 -0.188,0.85448 -103.6169,77.185 -229.8419,169.62338 -126.225,92.43838 -229.3894,168.39521 -229.2542,168.79296 0.1351,0.39775 19.4851,1.00528 43,1.35008 72.0544,1.05651 161.6213,2.95989 164.1603,3.48855 2.0597,0.42888 2.2036,0.69955 1,1.88038 -0.7734,0.75867 -73.841,31.96217 -162.3725,69.34113 -88.5316,37.37895 -161.1103,68.39315 -161.2861,68.92045 -0.1757,0.5273 11.8683,8.73164 26.7645,18.23186 19.1779,12.23085 26.9941,17.74036 26.7759,18.87368 -0.3465,1.79898 -352.1551,203.19016 -354.7076,203.05073 C 1026.2111,902.8662 945.4,857.91946 847.5,803.03203 Z m 192.6462,-157.54014 13.2223,-150.00811 -14.2948,-19.74189 C 1031.2116,464.88385 1024.4069,456 1023.9523,456 c -0.7683,0 -26.78362,34.34427 -29.75499,39.28119 -1.15007,1.91084 0.82293,22.69199 14.21459,149.71881 8.5525,81.125 15.8529,149.525 16.2231,152 0.6609,4.41855 0.6877,4.4457 1.481,1.5 0.4444,-1.65 6.758,-70.50365 14.0302,-153.00811 z M 1324.07,245.75 c -5.631,-27.58205 -6.8078,-34.36825 -6.0882,-35.10818 0.459,-0.472 168.3884,-47.38123 373.1764,-104.24274 C 1895.9462,49.537566 2064.2814,2.5612467 2065.2364,2.0072559 2067.4042,0.74980163 2070,0.70043678 2070,1.9166667 c 0,0.5041666 -0.3819,1.0666666 -0.8487,1.25 -0.4668,0.1833333 -14.0793,25.6584223 -30.25,56.6113093 -21.7125,41.560604 -29.9243,56.400414 -31.4013,56.746174 -3.2967,0.77176 -34.9624,3.28183 -35.4666,2.81136 -0.2566,-0.23946 5.7351,-12.84863 13.3151,-28.020389 9.4582,-18.931336 13.4584,-27.908239 12.7513,-28.615344 -0.7071,-0.707104 -106.0555,28.671741 -335.8151,93.649873 -184.1316,52.07411 -335.3153,94.67348 -335.9638,94.66527 -0.6485,-0.008 -1.6614,-2.37742 -2.2509,-5.26492 z M 365.5,145.43752 C 196.1,99.545427 55.5875,61.711782 53.25,61.362752 50.315561,60.924589 49,61.089353 49,61.895034 c 0,0.641786 6.306899,17.871053 14.01533,38.287256 7.708432,20.41621 13.786397,37.34932 13.506589,37.62912 -0.931792,0.9318 -31.828523,-4.68947 -32.595406,-5.93031 C 43.511563,131.20969 34.072018,103.84928 22.949746,71.080181 11.827474,38.311081 2.4086169,11.05 2.0189517,10.5 1.6292864,9.95 1.0322637,8.7190849 0.69223467,7.764633 0.19057652,6.3564929 0.39700935,6.2130656 1.787,7.0040014 2.72915,7.5401058 156.95,52.591431 344.5,107.11806 c 187.55,54.52662 341.34658,99.45049 341.77019,99.83081 0.4236,0.38033 -1.15635,5.38492 -3.51101,11.12132 -3.73499,9.09918 -4.59873,10.4539 -6.77018,10.61865 C 674.62005,228.79271 534.9,191.32961 365.5,145.43752 Z"
         id="path3412"
         inkscape:connector-curvature="0" />
      <path
         style="fill:#fce98f"
         d="m 1028.318,1368.25 c -10.1853,-36.0265 -83.13075,-278.6969 -83.84529,-278.9313 -0.565,-0.1853 -35.80335,19.2422 -78.30742,43.1722 -42.50408,23.93 -77.7043,43.5091 -78.22271,43.5091 -0.51842,0 -0.94258,-0.4062 -0.94258,-0.9027 0,-0.4964 14.87723,-32.7259 33.06051,-71.6211 18.18327,-38.8951 32.8358,-71.304 32.56117,-72.0197 -0.27464,-0.7157 -1.31436,-1.1076 -2.31051,-0.871 C 846.52775,1031.4844 708.09906,1053 706.09949,1053 704.94477,1053 704,1052.6586 704,1052.2413 c 0,-1.1261 240.93285,-156.50717 243.39364,-156.96811 1.38847,-0.26007 15.33251,7.15641 40.91327,21.76074 l 38.80689,22.15529 40.664,-22.16897 c 26.8372,-14.63097 41.3898,-22.03021 42.7986,-21.76089 2.4844,0.47492 244.9563,148.01934 247.8958,150.84494 1.9539,1.8781 1.9446,1.8956 -1,1.8845 -1.6347,-0.01 -36.2692,-3.1366 -76.9655,-6.9566 -40.6964,-3.82 -74.3017,-6.6275 -74.6786,-6.2389 -0.3769,0.3887 12.34,32.4018 28.2597,71.1403 15.9197,38.7385 28.5874,70.7912 28.1504,71.2282 -0.437,0.437 -34.3069,-19.9496 -75.2664,-45.3036 -40.9595,-25.354 -75.2159,-46.3103 -76.1254,-46.5696 -1.0117,-0.2884 -1.8692,0.2434 -2.209,1.37 -1.2075,4.0032 -77.6374,282.5199 -77.6374,282.917 0,1.2745 -2.2631,0.1559 -2.682,-1.3256 z M 848.5,803.11826 C 750.6,748.24941 670.3927,702.71395 670.26155,701.92836 c -0.14842,-0.88905 5.70391,-4.99456 15.5,-10.87349 41.8495,-25.11518 53.33267,-32.36065 52.54152,-33.1518 -0.47133,-0.47133 -80.94484,-30.36681 -178.83002,-66.4344 C 461.58787,555.40108 381.08,525.47321 380.56667,524.96229 c -0.51334,-0.51093 -0.7114,-1.15089 -0.44015,-1.42214 0.27125,-0.27125 44.79125,-2.07074 98.93333,-3.99885 C 596.87057,515.3458 588.51146,515.73104 588.45041,514.5 588.31299,511.72883 418.36897,390.68831 144.41966,198.24459 115.01776,177.59037 110.36447,174 112.99753,174 c 0.68333,0 126.58228,40.52115 279.77544,90.04701 153.19316,49.52585 278.89269,89.68733 279.33229,89.24773 0.43959,-0.43959 -0.52885,-5.74825 -2.15211,-11.797 -3.47886,-12.96329 -3.64197,-14.91113 -1.1951,-14.27126 2.64512,0.69171 194.11535,124.09016 194.65611,125.45168 0.25736,0.64798 -28.38052,33.04798 -63.63973,72 -36.71504,40.56031 -63.50235,70.93465 -62.69105,71.08584 0.77914,0.1452 40.56662,-7.58288 88.41662,-17.17351 66.36396,-13.30141 87.27073,-17.15916 88.14138,-16.264 0.62776,0.64543 5.40782,16.69851 10.62236,35.67351 5.27854,19.20787 9.97845,34.5 10.60329,34.5 1.70777,0 46.27411,-73.9479 44.77137,-74.2881 -0.69994,-0.15846 -9.79242,3.0753 -20.20551,7.18614 -14.56278,5.74903 -19.20238,7.20046 -20.10043,6.2881 -0.64215,-0.65238 -3.75121,-8.76522 -6.90902,-18.02854 -3.15781,-9.26333 -6.356,-17.07823 -7.1071,-17.36645 -0.75109,-0.28822 -25.31703,3.13418 -54.59098,7.60534 -29.27395,4.47116 -54.48522,8.12356 -56.02505,8.11645 -2.08639,-0.01 -2.59595,-0.36029 -2,-1.37627 0.43983,-0.74982 21.64091,-23.27205 47.1135,-50.04939 25.56481,-26.87427 46.17322,-49.33167 46,-50.12711 C 905.64122,449.66759 869.5,421.53322 825.5,387.93935 c -44,-33.59387 -81.11477,-62.17317 -82.47727,-63.50956 -2.29243,-2.24849 -2.32974,-2.42833 -0.5,-2.41018 1.0875,0.0108 32.34085,7.6497 69.45188,16.97538 37.11104,9.32568 67.79202,16.62936 68.17996,16.2304 0.38794,-0.39897 -2.1706,-11.30039 -5.68563,-24.22539 -3.51504,-12.925 -6.40852,-24.0625 -6.42996,-24.75 -0.0214,-0.6875 0.52352,-1.23953 1.21102,-1.22674 0.6875,0.0128 15.425,6.25439 32.75,13.87021 17.325,7.61582 31.82379,13.55907 32.21953,13.20721 0.39573,-0.35185 -17.04177,-59.2274 -38.75,-130.83456 C 873.76129,129.65897 856,70.605252 856,70.035647 856,69.466041 856.38528,69 856.85617,69 c 0.4709,0 37.22644,49.97173 81.67898,111.04829 l 80.82285,111.0483 2.1926,-2.2983 c 3.1913,-3.34507 116.7091,-164.28271 153.772,-218.007344 9.7547,-14.139979 18.2384,-26.019598 18.8525,-26.399153 0.7816,-0.48306 0.8986,0.179687 0.39,2.209054 -0.3997,1.594534 -20.7153,65.245413 -45.1459,141.446393 -24.4306,76.20098 -44.4192,138.86348 -44.4192,139.25 0,1.41348 2.7142,0.49144 32.1574,-10.92437 16.9547,-6.57369 30.3544,-11.2459 30.8306,-10.75 0.4632,0.48242 -1.9106,12.22368 -5.275,26.09168 -3.3645,13.868 -5.8729,25.45888 -5.5743,25.75751 0.2987,0.29863 29.9084,-6.66042 65.7995,-15.46455 C 1258.8293,333.20338 1289.0509,326 1290.0974,326 c 1.0464,0 1.8834,0.3375 1.8599,0.75 -0.023,0.4125 -34.9159,26.85 -77.5388,58.75 -42.6229,31.9 -78.4659,59.02185 -79.6511,60.27077 l -2.155,2.27076 32.499,32.72924 c 48.3402,48.68256 68.8886,70.12397 68.8886,71.88229 0,1.30766 -0.8038,1.45763 -4.75,0.8862 -8.9079,-1.28992 -52.6841,-9.45045 -85.25,-15.89187 -24.3223,-4.81086 -32.7855,-6.1414 -33.6346,-5.28788 -0.624,0.62727 -2.8705,12.1161 -4.9923,25.53072 -2.1217,13.41463 -4.3182,25.02004 -4.8811,25.78981 -0.8207,1.12239 -4.6557,-1.28188 -19.3645,-12.14024 C 1071.0399,564.09291 1062.3477,558 1061.8116,558 c -0.5361,0 0.06,1.6875 1.3236,3.75 5.4004,8.81168 46.1232,73.78884 46.4925,74.18333 1.1954,1.27702 3.0066,-4.39528 11.3136,-35.43333 5.0048,-18.7 9.5309,-35.0125 10.0578,-36.25 0.5515,-1.29524 1.8322,-2.25 3.0182,-2.25 1.1332,0 41.9803,9.01538 90.7715,20.03417 48.7912,11.0188 89.5773,19.9063 90.636,19.75 1.4314,-0.21133 -16.7663,-19.6082 -71,-75.67871 -40.1087,-41.46699 -73.0416,-76.11699 -73.1843,-77 -0.327,-2.02347 204.579,-133.68593 205.9389,-132.3261 0.5233,0.52329 -0.3634,6.81692 -2.1435,15.21457 -3.829,18.06373 -3.8349,18.42406 -0.2859,17.67783 1.5125,-0.31803 120.3807,-38.84928 264.1515,-85.625 C 1782.6723,217.27104 1900.6848,179 1901.1515,179 c 0.4667,0 0.8485,0.40536 0.8485,0.90079 0,0.49544 -102.4875,75.92788 -227.75,167.62765 -125.2625,91.69976 -228.625,167.5569 -229.6944,168.57142 -1.0695,1.01452 -1.7445,2.02254 -1.5,2.24003 0.2444,0.2175 30.5944,0.92973 67.4444,1.58273 87.4597,1.54983 140.6403,2.88439 141.3019,3.54594 0.2923,0.29229 0.2736,0.78928 -0.042,1.10443 -0.3151,0.31514 -73.3893,31.32513 -162.387,68.91109 -88.9977,37.58596 -161.9404,68.71718 -162.0948,69.18048 -0.1545,0.4633 11.6555,8.45765 26.2442,17.76522 14.5888,9.30757 27.0353,17.53759 27.6588,18.28892 0.6708,0.80826 0.7631,1.6987 0.2261,2.18068 -2.0815,1.86821 -353.7223,202.21816 -354.6079,202.04052 C 1026.6348,902.90684 946.4,857.9871 848.5,803.11826 Z M 1040.3222,648 c 10.4041,-117.46455 13.167,-151.97694 12.2983,-153.62298 -2.0471,-3.87869 -27.1012,-38.25539 -28.2307,-38.73528 -0.6107,-0.25944 -7.9232,8.69477 -16.25,19.89825 C 995.99128,491.88531 993,496.54449 993,499.12153 c 0,3.72832 30.666,295.64723 31.6072,300.87847 0.5417,3.01107 0.7461,3.22061 1.463,1.5 0.4583,-1.1 6.8717,-70.175 14.252,-153.5 z"
         id="path3410"
         inkscape:connector-curvature="0" />
      <path
         style="fill:#fbe36f"
         d="M 1028.4959,1367.75 C 1027.5066,1364.948 946,1089.8843 946,1089.3478 c 0,-1.918 -11.903,4.453 -80.27581,42.9675 C 824.0475,1155.7919 789.51,1175 788.97419,1175 788.43839,1175 788,1174.5315 788,1173.9589 c 0,-0.5726 14.86076,-32.8268 33.02392,-71.6761 18.16315,-38.8492 32.64303,-71.0159 32.1775,-71.4814 -0.46553,-0.4655 -33.84585,4.3442 -74.1785,10.6882 -40.33265,6.344 -73.57002,11.2966 -73.86084,11.0058 -0.29081,-0.2908 -0.10875,-0.925 0.40459,-1.4094 C 707.57455,1049.1916 947.06184,895 947.99642,895 c 0.54705,0 18.33381,9.9 39.52613,22 21.19235,12.1 39.04515,22 39.67285,22 0.6278,0 19.2856,-9.9 41.462,-22 22.1763,-12.1 40.7632,-22 41.3041,-22 1.9966,0 249.0996,151.3384 248.3331,152.0918 -0.437,0.4295 -33.8696,-2.3307 -74.2946,-6.1339 -40.425,-3.8031 -74.7375,-6.9245 -76.25,-6.9363 -1.5125,-0.012 -2.75,0.4359 -2.75,0.9951 0,0.5593 12.825,32.2493 28.5,70.4223 15.675,38.173 28.5,69.9386 28.5,70.5902 0,0.6516 -0.6198,0.9469 -1.3773,0.6562 -0.7576,-0.2907 -34.5863,-21.0566 -75.1749,-46.1466 -40.5887,-25.0899 -74.489,-45.4849 -75.334,-45.3222 -1.1422,0.22 -11.5349,36.6741 -40.4941,142.0397 -21.4266,77.959 -39.3456,141.7437 -39.82,141.7437 -0.4744,0 -1.0611,-0.5625 -1.3038,-1.25 z M 848,802.42959 C 750.375,747.72244 670.5,702.47397 670.5,701.87742 c 0,-0.59654 15.40011,-10.3755 34.22248,-21.73102 18.82236,-11.35552 34.23486,-21.16634 34.25,-21.80183 0.0151,-0.63548 -3.68498,-2.50436 -8.22248,-4.15307 -61.0266,-22.17408 -348.48782,-128.5659 -349.16722,-129.22973 -0.55215,-0.53951 -0.35315,-1.08056 0.5,-1.3594 0.77947,-0.25476 41.69222,-1.8515 90.91722,-3.54831 112.83607,-3.88952 116,-4.04042 116,-5.5327 0,-2.67815 -143.16772,-104.81042 -402.40304,-287.06427 -40.64667,-28.5764 -73.20707,-52.09336 -72.35644,-52.25991 0.85063,-0.16656 126.20631,39.99594 278.56819,89.25 C 545.17059,313.70123 670.54348,354 671.41515,354 c 2.08918,0 2.06907,-0.19901 -1.41515,-14 -3.38264,-13.39865 -3.31806,-13 -2.10606,-13 0.49167,0 44.47917,28.05888 97.75,62.35306 60.47004,38.92881 96.85606,62.93939 96.85606,63.91382 0,0.85842 -28.35,32.89009 -63,71.18149 -34.65,38.29139 -63,70.16767 -63,70.83617 0,0.72092 1.01718,1.07646 2.5,0.87384 1.375,-0.18789 40.42175,-7.95039 86.77055,-17.25 C 872.11935,569.60877 910.91451,562 911.982,562 c 1.39432,0 2.22897,1.05607 2.96379,3.75 11.51677,42.2217 18.87101,67.68858 19.61844,67.93629 C 935.52168,634.00362 981,559.91372 981,558.03659 c 0,-0.57012 -0.3375,-1.03495 -0.75,-1.03295 -0.4125,0.002 -9.23426,3.377 -19.6039,7.5 -10.36965,4.123 -19.43304,7.49636 -20.14086,7.49636 -1.08286,0 -6.79458,-14.79447 -12.41665,-32.16157 -0.65193,-2.01387 -1.72606,-3.86316 -2.38696,-4.10954 -0.6609,-0.24638 -25.50163,3.29537 -55.20163,7.87055 -56.95972,8.77445 -57.5,8.84608 -57.5,7.62282 0,-0.58825 62.24662,-66.72047 90.76208,-96.42769 2.99639,-3.12163 3.35531,-3.9482 2.27804,-5.24623 -0.70331,-0.84744 -37.88512,-29.50963 -82.62624,-63.69377 -44.74112,-34.18413 -81.1449,-62.48077 -80.89729,-62.88142 0.24762,-0.40065 31.2548,6.96937 68.90485,16.37783 37.65005,9.40845 68.78223,16.77869 69.18261,16.3783 0.40038,-0.40038 -2.09314,-11.23362 -5.54117,-24.07385 -3.44803,-12.84024 -6.11023,-24.07245 -5.91601,-24.96048 0.2848,-1.30214 6.52593,1.0868 32.25201,12.34523 17.54439,7.6779 32.33814,13.95982 32.875,13.95982 0.53687,0 0.72698,-1.2375 0.42248,-2.75 -0.3045,-1.5125 -17.93497,-60.05805 -39.17883,-130.10123 C 874.27368,130.1056 857.04274,72.0556 857.22657,71.148774 c 0.21753,-1.073075 2.50507,1.319153 6.5514,6.851226 3.41944,4.675 39.63076,54.37273 80.4696,110.43941 40.83884,56.06667 74.76903,102.10137 75.40043,102.29933 1.3002,0.40763 107.1751,-148.8183 158.1874,-222.957983 C 1191.4218,48.0347 1194,44.691602 1194,46.820145 c 0,0.515998 -20.025,63.404765 -44.5,139.752815 C 1110.1693,309.26233 1104.043,329 1105.2927,329 c 0.161,0 14.1402,-5.36068 31.0649,-11.91262 24.1859,-9.36289 30.8905,-11.60433 31.3249,-10.47227 0.304,0.79219 -2.2002,12.44642 -5.5649,25.89829 -3.3647,13.45188 -6.1176,24.6894 -6.1176,24.97228 0,1.21115 6.5928,-0.2786 68.5309,-15.48568 35.8423,-8.8 65.4605,-16 65.8184,-16 0.3579,0 0.6507,0.39515 0.6507,0.8781 0,0.48296 -35.5696,27.55251 -79.0436,60.15457 -43.4739,32.60205 -78.9114,59.84943 -78.75,60.54974 0.1615,0.7003 18.5212,19.86825 40.7994,42.59543 22.2782,22.72719 45.0032,46.04716 50.5,51.82216 l 9.9942,10.5 -3.2346,0.31221 c -3.8272,0.36941 -22.9913,-2.99765 -79.149,-13.90625 -22.761,-4.4213 -41.7323,-7.67136 -42.1585,-7.22235 -0.4262,0.44902 -2.6565,12.29139 -4.9562,26.31639 -2.2997,14.025 -4.3863,25.70797 -4.637,25.96215 -0.6998,0.70973 -3.5399,-1.21994 -21.466,-14.58492 C 1069.768,562.56976 1062.0055,557 1061.6487,557 c -0.3568,0 -0.6487,0.45244 -0.6487,1.00543 0,1.26788 47.7624,77.72967 49.0524,78.52694 1.358,0.83932 1.7361,-0.37848 12.0936,-38.94999 5.1447,-19.15884 9.8697,-35.03276 10.5,-35.27539 0.6303,-0.24263 42.1214,8.81404 92.2024,20.12594 50.0811,11.31189 91.3359,20.56707 91.6774,20.56707 0.3414,0 0.4754,-0.64222 0.2975,-1.42715 -0.1778,-0.78494 -32.9483,-35.18902 -72.8233,-76.45352 -39.875,-41.26451 -72.5,-75.55673 -72.5,-76.20495 C 1171.5,447.76139 1374.3049,317 1376.0931,317 c 1.4541,0 1.0919,3.13795 -2.1004,18.198 -1.6541,7.80302 -2.642,14.55268 -2.1955,14.99923 0.4466,0.44655 119.1236,-37.66515 263.7267,-84.69266 C 1780.1271,218.47706 1899.115,180 1899.9416,180 c 1.1719,0 1.0685,0.41702 -0.4694,1.89358 -1.0847,1.04147 -103.8972,76.47716 -228.4722,167.63486 -124.575,91.15771 -227.1482,166.34488 -227.9405,167.08261 -0.7922,0.73773 -1.1949,1.5869 -0.8947,1.88704 0.3001,0.30014 24.5733,0.97527 53.9404,1.5003 90.623,1.62018 152.3257,3.0695 153.8948,3.61482 1.2709,0.44167 1.2365,0.6692 -0.225,1.48975 -0.9488,0.53266 -73.5957,31.32185 -161.4377,68.42042 -87.842,37.09858 -160.1714,67.91073 -160.7321,68.47144 -1.4587,1.45868 -0.6358,2.07274 22.3948,16.71066 11.275,7.16623 23.1379,14.7102 26.3619,16.76436 4.8885,3.11461 5.6358,3.9515 4.5,5.03953 -2.6405,2.52951 -351.9168,201.48994 -353.6277,201.43919 C 1026.2804,901.92027 945.625,857.13673 848,802.42959 Z m 192.5319,-153.26764 c 13.0711,-147.56162 13.5175,-153.43833 11.8515,-156 C 1047.023,484.9196 1024.7602,455 1023.9876,455 c -0.9032,0 -7.8527,8.94598 -23.782,30.61417 l -8.17052,11.11418 15.95952,151.38582 c 8.7778,83.26221 16.2482,152.96083 16.6009,154.88583 0.5557,3.03219 0.7558,3.23268 1.4975,1.5 0.4709,-1.1 6.9684,-71.00212 14.4389,-155.33805 z"
         id="path3408"
         inkscape:connector-curvature="0" />
      <path
         style="fill:#fadd4b"
         d="m 1026.655,1359.8569 c -1.3922,-4.5963 -19.6791,-66.1819 -40.6377,-136.8569 -20.95855,-70.675 -38.58447,-130.0024 -39.1687,-131.8387 -0.79958,-2.5131 -1.51359,-3.2207 -2.88748,-2.8614 -1.00387,0.2625 -36.32835,19.9049 -78.49885,43.6497 -42.17049,23.7448 -76.87174,42.9743 -77.11389,42.7321 -0.24215,-0.2421 14.43041,-32.2636 32.60568,-71.1589 C 839.12933,1064.6276 854,1032.1733 854,1031.4021 c 0,-0.8173 -1.01131,-1.4021 -2.42472,-1.4021 -1.3336,0 -33.89092,4.95 -72.34961,11 -38.45869,6.05 -70.75756,11 -71.77528,11 -1.15293,0 -1.49231,-0.3494 -0.90039,-0.9269 C 709.32958,1048.361 946.54333,896 947.98618,896 c 0.94123,0 18.76689,9.7079 39.61257,21.57312 20.84565,11.86522 38.57625,21.62678 39.40125,21.69235 0.825,0.0656 19.4272,-9.66839 41.3381,-21.63103 25.0723,-13.6886 40.6536,-21.63614 42.0381,-21.44236 1.21,0.16936 57.5328,34.05792 125.1619,75.30792 101.5995,61.9701 122.4407,75.0447 119.9619,75.2575 -1.65,0.1417 -35.85,-2.8509 -76,-6.65 -55.0081,-5.2052 -73.2826,-6.6242 -74.1466,-5.7576 -0.8627,0.8653 5.9827,18.4818 27.6475,71.1501 15.8368,38.5 28.4064,70.1446 27.9325,70.3214 -0.4739,0.1767 -34.4011,-20.4108 -75.3937,-45.75 -40.9925,-25.3393 -74.9571,-46.0714 -75.4768,-46.0714 -0.5197,0 -1.1862,0.3905 -1.4811,0.8677 -0.295,0.4773 -17.8987,64.0398 -39.1193,141.25 -21.2207,77.2103 -38.964,140.7679 -39.4296,141.2392 -0.4657,0.4713 -1.9857,-2.9037 -3.3779,-7.5 z M 849,802.47064 c -97.625,-54.70875 -177.5,-99.9916 -177.5,-100.62857 0,-0.63696 15.27285,-10.4245 33.93966,-21.75009 18.66681,-11.32559 34.10307,-21.11326 34.3028,-21.75038 0.19972,-0.63711 -2.02312,-2.04651 -4.93966,-3.13198 C 731.88626,654.12414 651.65,624.55918 556.5,589.5097 461.35,554.46022 383.11671,525.42632 382.64825,524.98993 c -1.33936,-1.24766 9.96062,-1.78068 106.35175,-5.01658 96.70046,-3.24629 101.01067,-3.47232 100.98052,-5.29531 -0.0457,-2.76148 -173.9761,-126.71335 -435.2773,-310.20123 -21.88822,-15.37009 -39.30477,-28.10963 -38.70342,-28.31008 0.60134,-0.20044 125.98554,40.00689 278.63156,89.34963 163.1742,52.74597 277.90675,89.34553 278.43258,88.8197 0.52584,-0.52584 -0.33323,-5.57347 -2.08478,-12.24958 -3.38531,-12.90324 -3.56881,-14.52673 -1.55461,-13.75381 2.33018,0.89418 189.91946,121.71174 191.83571,123.5525 1.66798,1.60226 -1.59533,5.39975 -62.25,72.43975 C 763.80462,563.23678 735,595.50716 735,596.03688 735,596.5666 735.56979,597 736.26621,597 c 0.69641,0 40.5796,-7.86559 88.62931,-17.4791 48.04971,-9.6135 87.67853,-17.28415 88.06405,-17.04589 0.38551,0.23826 5.13108,16.44669 10.54571,36.01872 7.67033,27.72563 10.17528,35.52154 11.34115,35.29589 2.04529,-0.39586 47.63538,-75.70781 46.51061,-76.83258 -0.51212,-0.51212 -9.27994,2.45863 -20.83918,7.06082 -10.9753,4.3697 -20.2806,7.61578 -20.67843,7.21352 -0.39784,-0.40226 -3.27475,-8.15638 -6.39315,-17.23138 -3.1184,-9.075 -6.25436,-17.11878 -6.96882,-17.87506 -1.09834,-1.16265 -9.57969,-0.10953 -54.90449,6.81742 -29.48301,4.50587 -54.61066,8.04964 -55.83922,7.87506 -1.85555,-0.26368 5.63922,-8.59652 44.26625,-49.21619 25.575,-26.89432 46.63592,-49.67172 46.80205,-50.61643 0.21867,-1.24353 -21.86471,-18.63368 -80,-62.99814 -44.16613,-33.70426 -80.95026,-61.87865 -81.74253,-62.60975 -0.79226,-0.73111 -1.21023,-1.55953 -0.92883,-1.84094 0.28141,-0.2814 31.02782,7.16219 68.32536,16.54132 37.29754,9.37912 68.19017,16.67649 68.6503,16.21636 0.46012,-0.46012 -2.11036,-11.77964 -5.71218,-25.15449 -3.60182,-13.37484 -6.30764,-24.55902 -6.01293,-24.85373 0.2947,-0.29471 15.04164,5.82336 32.77097,13.5957 17.72932,7.77234 32.61435,13.75231 33.07784,13.28882 0.46349,-0.46349 -16.72366,-58.77824 -38.19367,-129.58835 C 875.56637,132.7715 858,74.101442 858,73.203695 c 0,-1.42987 0.17397,-1.450699 1.40302,-0.167981 0.77167,0.805357 36.58081,49.839286 79.57587,108.964286 42.99506,59.125 78.70121,108.04623 79.34701,108.71384 0.6457,0.66761 1.6843,0.89261 2.3079,0.5 1.8158,-1.14332 130.5953,-183.65095 159.0697,-225.435243 C 1190.3174,50.203318 1193,46.744459 1193,48.634459 c 0,0.413871 -20.025,63.208951 -44.5,139.544621 -24.475,76.33568 -44.5,139.24861 -44.5,139.80653 0,0.55791 0.5625,1.02587 1.25,1.03989 0.6875,0.014 14.8701,-5.2284 31.5168,-11.64984 16.6468,-6.42145 30.4978,-11.44444 30.78,-11.16221 0.2822,0.28223 -2.3025,11.81247 -5.7439,25.62276 -4.1241,16.54983 -5.92,25.44668 -5.2683,26.09839 0.6517,0.65171 23.1431,-4.45735 65.9771,-14.98713 35.7436,-8.78675 65.6633,-15.84265 66.4883,-15.67979 0.825,0.16286 -34.05,26.96912 -77.5,59.56945 -43.45,32.60033 -79.1644,59.74165 -79.3653,60.31405 -0.2009,0.5724 12.8859,14.38504 29.0819,30.69477 41.3739,41.66441 71.7834,73.16692 71.7834,74.36355 0,1.57679 -19.4343,-1.7491 -83.14,-14.22813 C 1130.2581,534.14161 1113.0944,531 1111.7185,531 c -3.0294,0 -2.5783,-1.70845 -7.2603,27.5 -2.0278,12.65 -3.9992,23.57756 -4.381,24.28346 -0.4855,0.89773 -6.2104,-2.81213 -19.0486,-12.34391 C 1061.8181,556.1766 1060,555.01508 1060,557.00499 c 0,1.02701 42.3865,69.76924 48.2934,78.32205 1.2504,1.81049 2.2985,2.48109 2.9146,1.86493 0.5292,-0.52916 5.3687,-17.24869 10.7545,-37.15451 5.3859,-19.90582 10.1851,-36.56257 10.665,-37.01499 0.4799,-0.45242 41.3725,8.3474 90.8725,19.55516 49.5,11.20776 91.0125,20.38779 92.25,20.40006 1.2375,0.0123 2.25,-0.42745 2.25,-0.97716 0,-0.5497 -32.8912,-34.99291 -73.0915,-76.54046 -40.4246,-41.77938 -72.877,-76.0999 -72.6116,-76.79152 0.5718,-1.48991 203.7127,-131.9923 204.3962,-131.30879 0.2595,0.2595 -0.9153,7.04028 -2.6106,15.0684 -3.5353,16.74066 -3.6842,18.57184 -1.5108,18.57184 0.8645,0 119.2503,-38.27557 263.0795,-85.05683 143.8293,-46.78126 262.0038,-84.89151 262.61,-84.68945 1.4046,0.46823 27.5744,-18.84698 -231.2612,170.68757 -124.025,90.81834 -225.5,165.67201 -225.5,166.34148 0,0.92318 8.9382,1.36729 37,1.83841 99.2115,1.66562 164.3229,3.02609 167.3803,3.49732 1.8915,0.29154 2.9925,0.89595 2.5,1.37238 -0.4842,0.46825 -71.9803,30.86444 -158.8803,67.54708 -86.9,36.68265 -159.2662,67.34454 -160.8138,68.13754 -1.5476,0.793 -2.6604,1.90185 -2.473,2.46411 0.1874,0.56226 12.4472,8.76648 27.2439,18.2316 14.7967,9.46512 27.0423,17.64119 27.2125,18.16905 0.2834,0.87923 -350.2903,201.67627 -352.9888,202.18029 C 1027.0314,901.84185 946.625,857.17939 849,802.47064 Z M 1040.4353,654.92431 C 1047.8959,571.00768 1054,500.56911 1054,498.39416 c 0,-3.49627 -1.6306,-6.21041 -14.0726,-23.42431 -7.74,-10.70842 -14.6759,-19.80784 -15.4132,-20.22094 C 1022.692,453.72793 992,494.85421 992,498.31689 c 0,3.49975 31.8607,304.63384 32.5905,308.03195 0.3365,1.56686 0.9872,2.46686 1.446,2 0.4588,-0.46686 6.9382,-69.5079 14.3988,-153.42453 z"
         id="path3406"
         inkscape:connector-curvature="0" />
      <path
         style="fill:#fad72e"
         d="m 1029,1366.7345 c 0,-2.3186 -82.35791,-277.4794 -83.35624,-278.4963 -0.99301,-1.0115 -16.58444,7.3758 -78.58437,42.2736 -42.54006,23.9444 -77.53082,43.3501 -77.75723,43.1237 -0.22642,-0.2264 14.46297,-32.2254 32.64309,-71.1089 C 840.12536,1063.6431 855,1031.4036 855,1030.8833 c 0,-0.5204 -0.57581,-1.167 -1.27957,-1.4371 -0.70376,-0.27 -32.92891,4.4938 -71.61145,10.5863 -38.68254,6.0926 -71.22298,10.9402 -72.31209,10.7724 -1.28009,-0.1971 40.17795,-27.5287 117.2604,-77.3049 65.58233,-42.35 119.76557,-77.12951 120.40721,-77.2878 0.64165,-0.1583 18.58706,9.6292 39.87871,21.75 C 1008.6349,930.08299 1026.5686,940 1027.196,940 c 0.6274,0 19.285,-9.9 41.4614,-22 22.1763,-12.1 40.7397,-22 41.252,-22 0.7273,0 244.6285,148.2784 245.9071,149.4978 1.2834,1.2241 -9.4937,0.3936 -72.8165,-5.6111 -39.325,-3.7291 -73.2437,-6.8041 -75.375,-6.8334 -3.7101,-0.051 -3.8503,0.064 -3.2942,2.6967 0.3195,1.5125 13.172,33.35 28.5612,70.75 15.3891,37.4 27.6136,68.1318 27.1654,68.2929 -0.4482,0.1611 -34.4546,-20.5063 -75.5697,-45.9276 -63.5854,-39.3145 -74.9216,-45.9909 -75.8713,-44.6837 -0.614,0.8452 -18.3891,64.4876 -39.5003,141.4276 C 1036.2261,1345.4776 1029,1370.8984 1029,1366.7345 Z M 849,801.98467 C 751.925,747.56725 672.5,702.50439 672.5,701.84498 c 0,-0.65941 13.275,-9.22646 29.5,-19.03788 43.03903,-26.02614 39.54504,-23.69063 37.9012,-25.33447 -0.77771,-0.77771 -80.82509,-30.68866 -177.88306,-66.46878 -97.05797,-35.78011 -176.90759,-65.4933 -177.44359,-66.0293 -0.63273,-0.63273 0.41089,-0.97226 2.97545,-0.96803 9.27638,0.0153 201.06509,-7.09992 202.2,-7.50147 0.6875,-0.24326 1.25,-0.91452 1.25,-1.49169 0,-2.73609 -136.20927,-100.04733 -380,-271.4813 -42.075,-29.5872 -80.41452,-56.54827 -85.19893,-59.91348 -4.7844,-3.36522 -8.30257,-6.25836 -7.81813,-6.4292 0.48443,-0.17084 124.85291,39.76666 276.3744,88.75 C 545.87882,314.92272 670.78449,355 671.92548,355 673.14325,355 674,354.35212 674,353.43122 674,351.81469 669.50109,333.46939 668.40273,330.6071 668.04519,329.67537 668.2957,329 668.99885,329 670.59678,329 862,452.24373 862,453.27264 c 0,0.5794 -103.1576,115.32213 -125.85032,139.98395 -1.71182,1.86037 -2.20732,3.08577 -1.52402,3.76907 0.68329,0.68329 29.39399,-4.70007 88.30745,-16.55796 48.01223,-9.66373 87.99362,-17.43481 88.84751,-17.26906 1.13405,0.22013 4.18497,9.82985 11.31842,35.65049 5.37124,19.44202 10.00187,35.58511 10.29029,35.87354 0.28843,0.28842 1.10632,0.29408 1.81754,0.0126 1.17207,-0.46393 45.90723,-73.26303 47.38218,-77.1067 1.0798,-2.8139 -2.16763,-1.94053 -22.33808,6.00762 -10.97834,4.32601 -19.7338,7.25202 -20.19793,6.75 -0.45059,-0.48738 -3.37067,-8.31115 -6.48906,-17.38615 -3.1184,-9.075 -6.2085,-17.03394 -6.8669,-17.68654 -0.9242,-0.91605 -13.7183,0.73401 -56.12523,7.23852 -30.21049,4.63377 -55.15912,8.19408 -55.44141,7.91179 -0.28229,-0.28229 1.77217,-2.86462 4.56548,-5.73851 C 844.10976,519.60704 908,451.44997 908,450.52391 c 0,-0.64613 -36.6933,-29.21004 -81.54066,-63.47535 -44.84737,-34.26531 -81.35109,-62.49014 -81.11938,-62.72185 0.2317,-0.23171 30.15728,7.02499 66.50128,16.126 C 848.18524,349.55372 878.83896,357 879.96062,357 881.13691,357 882,356.34332 882,355.44835 c 0,-0.85341 -2.76651,-11.8869 -6.14779,-24.51887 -3.38129,-12.63198 -5.86864,-23.24638 -5.52746,-23.58757 0.34119,-0.34118 14.6952,5.52584 31.8978,13.03784 17.2026,7.51199 31.83995,13.64964 32.52745,13.63921 0.6875,-0.0104 1.25229,-0.80646 1.25508,-1.76896 0.003,-0.9625 -17.35535,-59.02553 -38.57367,-129.02896 C 876.21308,133.21761 859.01914,75.44259 859.22263,74.832107 859.42613,74.221623 895.33406,122.83466 939.01805,182.86107 982.70203,242.88748 1018.9809,292 1019.6377,292 c 0.6568,0 2.5077,-1.6875 4.113,-3.75 6.6844,-8.58792 134.4871,-190.202773 157.6698,-224.057678 5.3886,-7.869223 9.9879,-14.117282 10.2206,-13.884576 0.3144,0.314465 -74.3617,234.784324 -86.5689,271.811034 -1.0188,3.09033 -1.4992,6.19026 -1.0676,6.88873 0.5908,0.9558 8.3551,-1.65131 31.3867,-10.53893 16.8309,-6.49488 30.8881,-11.52247 31.2382,-11.17241 0.3501,0.35006 -2.1322,11.70536 -5.5161,25.234 -3.3839,13.52865 -5.8922,25.0188 -5.5739,25.53368 0.3182,0.51488 1.3003,0.93615 2.1826,0.93615 0.8822,0 30.124,-7.00636 64.9819,-15.56969 34.8578,-8.56333 63.86,-15.40897 64.4494,-15.21252 0.5893,0.19644 -33.9666,26.6653 -76.791,58.81969 -42.8243,32.15439 -77.9939,59.1771 -78.1545,60.05048 -0.1775,0.96472 14.3442,16.48428 37,39.54261 62.5116,63.62224 63.6102,64.79445 61.0746,65.17084 -2.71,0.40228 -23.7608,-3.33754 -78.6373,-13.97044 -32.4115,-6.28005 -42.0304,-7.82568 -42.6331,-6.85051 -0.4281,0.69261 -2.6129,12.51233 -4.8552,26.26604 -2.2422,13.75371 -4.2934,25.22329 -4.558,25.48795 -0.2647,0.26465 -9.0975,-5.86733 -19.6285,-13.62663 C 1069.4394,561.34852 1060.3605,555 1059.7949,555 c -0.5655,0 -0.8024,0.8634 -0.5264,1.91866 0.2759,1.05527 11.6453,19.75038 25.2653,41.5447 17.218,27.55191 25.2343,39.53537 26.3084,39.32852 1.1313,-0.21788 4.179,-10.06215 11.3867,-36.78014 5.4131,-20.06545 10.2251,-36.8657 10.6932,-37.33388 0.4684,-0.46832 41.8465,8.40941 91.9849,19.73545 50.1234,11.32268 91.8324,20.58669 92.6866,20.58669 0.8672,0 1.4103,-0.67437 1.2297,-1.52713 -0.1778,-0.83993 -33.1733,-35.52616 -73.3233,-77.08051 -40.15,-41.55435 -73.1127,-75.85525 -73.2505,-76.22422 -0.1377,-0.36897 45.5311,-30.05126 101.4863,-65.96066 55.9552,-35.90939 101.8954,-64.814 102.0892,-64.23246 0.1939,0.58153 -1.0752,7.85234 -2.8201,16.15733 -2.1348,10.16072 -2.8424,15.43018 -2.1631,16.10942 0.6792,0.67925 86.7498,-26.87536 263.1287,-84.23791 144.1657,-46.88603 262.3361,-85.03063 262.6009,-84.76576 0.6374,0.63733 19.0353,-12.91209 -232.5714,171.28095 -122.375,89.58676 -222.8306,163.3566 -223.2347,163.93298 -0.4041,0.57638 -0.7416,1.33488 -0.75,1.68555 -0.018,0.74956 26.9659,1.47522 106.4847,2.86362 74.6513,1.30342 101.7913,2.12204 100.7986,3.04037 -0.4392,0.40628 -72.5736,31.00475 -160.2986,67.9966 -87.725,36.99185 -160.1168,67.82419 -160.8707,68.5163 -1.8822,1.72799 -1.9067,1.70977 27.7912,20.69487 13.9813,8.93786 25.5667,16.70066 25.7454,17.25066 0.3865,1.18934 -349.0859,200.90393 -352.0938,201.21271 -1.1835,0.1215 -77.7594,-42.21538 -178.5721,-98.72804 z m 192.1466,-148.64178 c 8.3219,-93.0861 13.6144,-156.77124 13.1429,-158.14824 -0.4342,-1.26795 -7.0895,-11.05564 -14.7895,-21.75043 -9.6615,-13.41918 -14.5201,-19.36748 -15.6785,-19.19465 -1.2604,0.18806 -27.71542,34.29589 -32.08186,41.36245 -0.66661,1.07882 31.71396,311.46223 32.78966,314.3052 0.3822,1.01017 0.8448,1.10866 1.6106,0.34289 0.6248,-0.62477 6.9044,-66.2874 15.0067,-156.91722 z"
         id="path3404"
         inkscape:connector-curvature="0" />
      <path
         style="fill:#f9d107"
         d="m 988.56965,1227.3205 c -22.4885,-75.8013 -41.08966,-138.383 -41.33591,-139.0705 -0.24624,-0.6875 -1.33787,-1.25 -2.42583,-1.25 -1.08796,0 -35.97084,19.144 -77.5175,42.5422 -41.54665,23.3982 -75.7737,42.3078 -76.06009,42.0215 -0.28639,-0.2864 14.16963,-31.9415 32.12449,-70.3446 C 841.30966,1062.816 856,1030.8829 856,1030.2567 c 0,-0.6263 -0.41938,-1.3979 -0.93196,-1.7147 -0.51258,-0.3167 -32.53968,4.3998 -71.17133,10.4814 -38.63166,6.0815 -70.90012,10.9266 -71.7077,10.7669 C 710.70592,1049.4971 946.06231,897 947.998,897 c 0.57422,0 17.57208,9.40889 37.77302,20.90865 20.20098,11.49976 37.91768,21.44977 39.37058,22.11114 2.469,1.12391 5.289,-0.24237 43.1548,-20.90865 C 1090.5786,906.95001 1109.3204,897 1109.9449,897 c 1.1014,0 241.589,146.2608 243.5147,148.1018 0.5852,0.5594 -0.7804,0.7034 -3.5,0.3689 -15.0224,-1.8477 -144.5972,-13.44 -145.6617,-13.0315 -0.7138,0.2739 -1.2979,1.099 -1.2979,1.8335 0,0.7345 12.7671,32.3611 28.3714,70.2814 15.6043,37.9202 28.239,69.0986 28.0773,69.2853 -0.1618,0.1867 -32.8414,-19.7978 -72.6214,-44.4098 -39.78,-24.6121 -73.5585,-45.2236 -75.0633,-45.8034 -1.7554,-0.6763 -3.0781,-0.7086 -3.6904,-0.09 -0.5249,0.5302 -18.0732,63.289 -38.9963,139.464 -20.923,76.175 -38.3968,139.3192 -38.8307,140.3205 -0.5415,1.25 -13.6035,-41.3739 -41.67695,-136 z M 850.18596,801.71133 C 752.73733,747.1451 673.00513,702.20182 673.00331,701.83738 c -0.002,-0.36445 14.73419,-9.53968 32.74669,-20.38941 18.0125,-10.84972 33.52269,-20.45154 34.46708,-21.33737 1.02455,-0.96102 1.39942,-2.12226 0.92947,-2.87923 -0.43319,-0.69775 -80.14895,-30.51582 -177.14613,-66.26238 -96.99718,-35.74656 -176.52293,-65.15817 -176.72388,-65.35912 -0.7484,-0.74839 20.52132,-1.65595 109.22346,-4.66045 50.05,-1.69529 92.0125,-3.28601 93.25,-3.53493 3.38499,-0.6809 2.72713,-2.89366 -2,-6.72715 C 569.59461,495.96411 367.97465,352.70092 161.76615,208 c -22.33793,-15.675 -40.24678,-28.63393 -39.79744,-28.79761 0.44933,-0.16369 124.08116,39.54881 274.7374,88.25 C 547.36235,316.15357 671.61057,356 672.81327,356 c 2.8531,0 2.79719,-1.12169 -0.72285,-14.5 -1.59184,-6.05 -2.72723,-11.17367 -2.52307,-11.38593 0.20415,-0.21227 36.94752,23.15811 81.65192,51.93418 44.7044,28.77606 87.67991,56.39973 95.50112,61.38593 7.82122,4.9862 14.23372,9.41346 14.25,9.83836 0.0163,0.42489 -28.77034,32.59989 -63.97028,71.5 -35.19994,38.9001 -63.99994,71.28996 -64,71.97746 -6e-5,0.69853 1.21929,1.25 2.76385,1.25 1.52017,0 41.83197,-7.8159 89.58178,-17.36866 74.62298,-14.92897 86.90158,-17.1504 87.41407,-15.81489 0.32793,0.85457 4.90727,17.10797 10.17631,36.11866 8.49201,30.63918 9.80621,34.56489 11.57118,34.56489 1.54854,0 7.26493,-8.66879 25.71749,-39 13.04951,-21.45 23.73737,-39.35162 23.7508,-39.78138 0.0794,-2.54147 -5.13964,-1.22444 -22.33518,5.63633 C 951.10174,566.55973 941.97314,570 941.35464,570 c -0.6185,0 -3.72529,-7.5375 -6.90398,-16.75 -3.17869,-9.2125 -6.21056,-17.3125 -6.73749,-18 -0.52693,-0.6875 -2.03908,-1.25 -3.36033,-1.25 -1.32125,0 -26.06865,3.6225 -54.99423,8.05 -28.92557,4.42749 -52.72876,7.91318 -52.89597,7.74597 -0.16721,-0.1672 20.5853,-22.30333 46.11667,-49.19138 C 888.11069,473.71653 909,451.14879 909,450.45406 c 0,-0.69474 -36.1125,-28.83054 -80.25,-62.52401 -44.1375,-33.69346 -80.4375,-61.41142 -80.66667,-61.59545 -1.81624,-1.45852 8.35525,0.91441 66.6185,15.54157 52.12991,13.08738 66.46141,16.36059 67.42306,15.39894 0.96165,-0.96165 -0.12265,-6.22583 -5.10117,-24.7655 -3.47732,-12.94934 -6.08548,-23.78118 -5.7959,-24.07076 0.28958,-0.28958 14.47614,5.56822 31.5257,13.01732 C 919.80307,328.90528 934.54223,335 935.5072,335 c 1.42303,0 1.65292,-0.61399 1.2169,-3.25 -0.29568,-1.7875 -17.71027,-59.88179 -38.6991,-129.09842 -20.98882,-69.21663 -38.01829,-125.986293 -37.84325,-126.154813 0.17504,-0.168519 35.81691,48.475773 79.20416,108.098413 48.69847,66.92132 79.50359,108.40044 80.49999,108.39338 0.9892,-0.007 17.2855,-22.17065 42.0942,-57.25 45.2349,-63.96178 106.1685,-150.796074 118.945,-169.504296 4.6072,-6.746155 8.5403,-12.102213 8.7401,-11.902352 0.1999,0.199862 -19.218,61.442498 -43.1509,136.094748 C 1122.5814,265.07891 1103,326.99591 1103,328.02 c 0,1.02408 0.4176,2.12007 0.928,2.43552 0.5105,0.31546 14.4814,-4.66208 31.0465,-11.06119 16.5651,-6.39911 30.3824,-11.37077 30.705,-11.04813 0.3227,0.32265 -2.1346,11.46554 -5.4606,24.76198 -3.326,13.29645 -5.8128,24.78656 -5.5261,25.53359 0.2866,0.74703 1.2026,1.35823 2.0355,1.35823 0.8328,0 29.885,-6.975 64.5604,-15.5 34.6753,-8.525 63.496,-15.5 64.046,-15.5 0.5499,0 -33.8379,26.12213 -76.4174,58.04917 -45.413,34.05162 -77.5419,58.79851 -77.7187,59.86178 -0.2068,1.24338 11.3939,13.71089 36.9405,39.70083 62.5302,63.61523 62.6695,63.76383 60.1647,64.16313 -2.5487,0.40629 -26.2566,-3.8414 -80.2083,-14.37074 -22.7868,-4.44712 -38.7709,-7.12875 -39.3055,-6.59421 -0.4955,0.4955 -2.744,12.10346 -4.9968,25.79547 -2.2528,13.69201 -4.3654,25.20257 -4.6946,25.57902 -0.3292,0.37645 -9.0835,-5.58605 -19.4539,-13.25 C 1069.2742,560.2705 1060.1883,554 1059.4537,554 c -0.7346,0 -1.588,0.40823 -1.8963,0.90717 -0.3084,0.49894 11.0895,19.51144 25.3286,42.25 18.1165,28.9305 26.4764,41.43261 27.8451,41.64187 1.7584,0.26886 2.737,-2.60719 9.6969,-28.5 10.5521,-39.25682 12.2622,-45.32257 12.9795,-46.03988 0.3402,-0.34019 41.9002,8.6936 92.3555,20.07508 50.4554,11.38149 92.2995,20.68735 92.987,20.67969 0.6875,-0.008 1.25,-0.81595 1.25,-1.7962 0,-1.00378 -32.0727,-34.96506 -73.4264,-77.75 -56.7129,-58.67575 -73.1586,-76.24117 -72.25,-77.16903 3.1261,-3.19226 200.2159,-128.77181 200.476,-127.73713 0.1648,0.65553 -1.0489,7.65985 -2.697,15.56515 -2.4274,11.64366 -2.7548,14.61821 -1.7241,15.66302 1.0367,1.05081 47.7568,-13.82242 252.197,-80.2863 138.0085,-44.86682 255.537,-83.10207 261.1745,-84.96722 5.6375,-1.86515 10.2253,-3.08632 10.1951,-2.7137 -0.03,0.37261 -102.4185,75.59209 -227.5296,167.15438 -151.5991,110.94751 -227.3774,166.98495 -227.1829,168 0.3258,1.70014 1.5552,1.73935 125.7674,4.01098 36.575,0.66889 69.5771,1.50776 73.338,1.86414 l 6.8379,0.64798 -159.5806,67.38865 c -87.7693,37.06376 -160.0081,67.90385 -160.5307,68.53354 -0.5226,0.62969 -0.6145,1.68809 -0.2041,2.35201 0.4103,0.66392 12.5853,8.78199 27.0556,18.04015 14.4702,9.25816 26.3612,17.24986 26.4244,17.75934 0.082,0.65923 -263.5813,151.94115 -347.4078,199.33218 l -3.5674,2.01678 -177.17934,-99.21132 z m 177.83534,7.34754 c 0.012,-0.85738 6.2825,-71.75887 13.9351,-157.55887 l 13.9136,-156 -2.3063,-3.53409 c -1.2685,-1.94375 -8.0324,-11.39375 -15.0309,-21 -8.6959,-11.93606 -13.321,-17.46591 -14.6083,-17.46591 -1.2895,0 -6.7792,6.58991 -17.4041,20.89213 -14.83502,19.96954 -15.51859,21.09562 -15.47947,25.5 0.0682,7.67387 32.51247,311.57618 33.42037,313.04523 0.6831,1.1053 1.1008,1.01438 2.1913,-0.477 0.7411,-1.01344 1.357,-2.54411 1.3687,-3.40149 z"
         id="path3402"
         inkscape:connector-curvature="0" />
    </g>
  </g>
</svg>
